<svg width="205" height="63" viewBox="0 0 205 63" fill="none" xmlns="http://www.w3.org/2000/svg">
<g clip-path="url(#clip0_5_183)" filter="url(#filter0_d_5_183)">
<path d="M64.4871 47V32.2727H68.447V34.8423H68.6004C68.8689 33.9283 69.3195 33.2379 69.9523 32.7713C70.5852 32.2983 71.3139 32.0618 72.1384 32.0618C72.343 32.0618 72.5635 32.0746 72.8 32.1001C73.0365 32.1257 73.2443 32.1609 73.4232 32.2056V35.8299C73.2315 35.7724 72.9662 35.7212 72.6274 35.6765C72.2886 35.6317 71.9786 35.6094 71.6974 35.6094C71.0965 35.6094 70.5596 35.7404 70.0866 36.0025C69.62 36.2582 69.2492 36.6161 68.9744 37.0763C68.7059 37.5366 68.5717 38.0671 68.5717 38.668V47H64.4871ZM81.5611 47.2876C80.0462 47.2876 78.7422 46.9808 77.6492 46.3672C76.5625 45.7472 75.7252 44.8714 75.1371 43.7401C74.549 42.6023 74.255 41.2567 74.255 39.7035C74.255 38.1886 74.549 36.859 75.1371 35.7148C75.7252 34.5707 76.5529 33.679 77.6204 33.0398C78.6943 32.4006 79.9535 32.081 81.3981 32.081C82.3697 32.081 83.2742 32.2376 84.1115 32.5508C84.9553 32.8576 85.6904 33.321 86.3168 33.9411C86.9496 34.5611 87.4418 35.3409 87.7933 36.2805C88.1449 37.2138 88.3207 38.3068 88.3207 39.5597V40.6815H75.885V38.1502H84.4759C84.4759 37.5621 84.348 37.0412 84.0924 36.5874C83.8367 36.1335 83.4819 35.7788 83.0281 35.5231C82.5806 35.261 82.0597 35.13 81.4652 35.13C80.8452 35.13 80.2955 35.2738 79.8161 35.5614C79.3431 35.8427 78.9723 36.223 78.7039 36.7024C78.4354 37.1754 78.298 37.7028 78.2916 38.2844V40.6911C78.2916 41.4197 78.4258 42.0494 78.6943 42.5799C78.9691 43.1104 79.3558 43.5195 79.8544 43.8072C80.353 44.0948 80.9443 44.2386 81.6282 44.2386C82.0821 44.2386 82.4975 44.1747 82.8747 44.0469C83.2518 43.919 83.5746 43.7273 83.8431 43.4716C84.1115 43.2159 84.3161 42.9027 84.4567 42.532L88.2344 42.7812C88.0426 43.6889 87.6495 44.4815 87.0551 45.1591C86.467 45.8303 85.7063 46.3544 84.7731 46.7315C83.8463 47.1023 82.7756 47.2876 81.5611 47.2876ZM103.24 36.4723L99.5004 36.7024C99.4365 36.3828 99.299 36.0952 99.0881 35.8395C98.8772 35.5774 98.5991 35.3697 98.2539 35.2163C97.9152 35.0565 97.5093 34.9766 97.0362 34.9766C96.4034 34.9766 95.8697 35.1108 95.435 35.3793C95.0004 35.6413 94.783 35.9929 94.783 36.4339C94.783 36.7855 94.9237 37.0827 95.2049 37.3256C95.4862 37.5685 95.9688 37.7635 96.6527 37.9105L99.3182 38.4474C100.75 38.7415 101.818 39.2145 102.521 39.8665C103.224 40.5185 103.575 41.375 103.575 42.4361C103.575 43.4013 103.291 44.2482 102.722 44.9769C102.16 45.7056 101.386 46.2745 100.402 46.6836C99.4237 47.0863 98.2955 47.2876 97.0171 47.2876C95.0675 47.2876 93.5142 46.8817 92.3573 46.07C91.2067 45.2518 90.5323 44.1396 90.3342 42.7333L94.3516 42.5224C94.473 43.1168 94.7671 43.5707 95.2337 43.8839C95.7003 44.1907 96.298 44.3441 97.0267 44.3441C97.7426 44.3441 98.3178 44.2067 98.7525 43.9318C99.1936 43.6506 99.4173 43.2894 99.4237 42.8484C99.4173 42.4776 99.2607 42.174 98.9539 41.9375C98.647 41.6946 98.174 41.5092 97.5348 41.3814L94.9844 40.8732C93.5462 40.5856 92.4755 40.087 91.7724 39.3775C91.0757 38.668 90.7273 37.7635 90.7273 36.6641C90.7273 35.718 90.983 34.9031 91.4943 34.2191C92.0121 33.5352 92.7376 33.0078 93.6708 32.6371C94.6105 32.2663 95.7099 32.081 96.9691 32.081C98.8292 32.081 100.293 32.4741 101.361 33.2603C102.434 34.0465 103.061 35.1172 103.24 36.4723ZM113.981 32.2727V35.3409H105.112V32.2727H113.981ZM107.125 28.7443H111.21V42.4744C111.21 42.8516 111.267 43.1456 111.382 43.3565C111.497 43.5611 111.657 43.7049 111.862 43.788C112.073 43.8711 112.316 43.9126 112.59 43.9126C112.782 43.9126 112.974 43.8967 113.166 43.8647C113.358 43.8263 113.505 43.7976 113.607 43.7784L114.249 46.8178C114.045 46.8817 113.757 46.9553 113.386 47.0384C113.016 47.1278 112.565 47.1822 112.034 47.2013C111.05 47.2397 110.187 47.1087 109.446 46.8082C108.711 46.5078 108.138 46.0412 107.729 45.4084C107.32 44.7756 107.119 43.9766 107.125 43.0114V28.7443ZM120.841 47.2781C119.901 47.2781 119.064 47.1151 118.329 46.7891C117.594 46.4567 117.012 45.9677 116.584 45.3221C116.162 44.6701 115.951 43.8583 115.951 42.8867C115.951 42.0685 116.101 41.3814 116.402 40.8253C116.702 40.2692 117.111 39.8217 117.629 39.483C118.147 39.1442 118.735 38.8885 119.393 38.7159C120.058 38.5433 120.755 38.4219 121.483 38.3516C122.34 38.2621 123.03 38.179 123.554 38.1023C124.079 38.0192 124.459 37.8977 124.695 37.7379C124.932 37.5781 125.05 37.3416 125.05 37.0284V36.9709C125.05 36.3636 124.858 35.8938 124.475 35.5614C124.098 35.229 123.561 35.0629 122.864 35.0629C122.129 35.0629 121.544 35.2259 121.109 35.5518C120.675 35.8714 120.387 36.2741 120.247 36.7599L116.469 36.4531C116.661 35.5582 117.038 34.7848 117.6 34.1328C118.163 33.4744 118.888 32.9695 119.777 32.6179C120.672 32.2599 121.707 32.081 122.883 32.081C123.701 32.081 124.484 32.1768 125.232 32.3686C125.987 32.5604 126.655 32.8576 127.236 33.2603C127.824 33.663 128.288 34.1808 128.627 34.8136C128.965 35.44 129.135 36.1911 129.135 37.0668V47H125.261V44.9577H125.146C124.91 45.418 124.593 45.8239 124.197 46.1754C123.801 46.5206 123.324 46.7923 122.768 46.9904C122.212 47.1822 121.57 47.2781 120.841 47.2781ZM122.011 44.4592C122.612 44.4592 123.142 44.3409 123.602 44.1044C124.063 43.8615 124.424 43.5355 124.686 43.1264C124.948 42.7173 125.079 42.2539 125.079 41.7362V40.1733C124.951 40.2564 124.775 40.3331 124.552 40.4034C124.334 40.4673 124.088 40.5281 123.813 40.5856C123.538 40.6367 123.264 40.6847 122.989 40.7294C122.714 40.7678 122.465 40.8029 122.241 40.8349C121.761 40.9052 121.343 41.017 120.985 41.1705C120.627 41.3239 120.349 41.5316 120.151 41.7937C119.953 42.0494 119.853 42.369 119.853 42.7525C119.853 43.3086 120.055 43.7337 120.457 44.0277C120.867 44.3153 121.384 44.4592 122.011 44.4592ZM141.748 40.7294V32.2727H145.832V47H141.911V44.3249H141.757C141.425 45.1879 140.872 45.8814 140.099 46.4055C139.332 46.9297 138.395 47.1918 137.289 47.1918C136.305 47.1918 135.439 46.968 134.691 46.5206C133.943 46.0732 133.358 45.4371 132.936 44.6126C132.521 43.788 132.31 42.8004 132.304 41.6499V32.2727H136.388V40.9212C136.394 41.7905 136.628 42.4776 137.088 42.9826C137.548 43.4876 138.165 43.7401 138.938 43.7401C139.431 43.7401 139.891 43.6282 140.319 43.4045C140.747 43.1744 141.093 42.8356 141.355 42.3881C141.623 41.9407 141.754 41.3878 141.748 40.7294ZM149.099 47V32.2727H153.059V34.8423H153.213C153.481 33.9283 153.932 33.2379 154.565 32.7713C155.197 32.2983 155.926 32.0618 156.751 32.0618C156.955 32.0618 157.176 32.0746 157.412 32.1001C157.649 32.1257 157.857 32.1609 158.036 32.2056V35.8299C157.844 35.7724 157.579 35.7212 157.24 35.6765C156.901 35.6317 156.591 35.6094 156.31 35.6094C155.709 35.6094 155.172 35.7404 154.699 36.0025C154.232 36.2582 153.862 36.6161 153.587 37.0763C153.318 37.5366 153.184 38.0671 153.184 38.668V47H149.099ZM163.925 47.2781C162.985 47.2781 162.148 47.1151 161.413 46.7891C160.678 46.4567 160.096 45.9677 159.668 45.3221C159.246 44.6701 159.035 43.8583 159.035 42.8867C159.035 42.0685 159.185 41.3814 159.486 40.8253C159.786 40.2692 160.195 39.8217 160.713 39.483C161.231 39.1442 161.819 38.8885 162.477 38.7159C163.142 38.5433 163.839 38.4219 164.567 38.3516C165.424 38.2621 166.114 38.179 166.638 38.1023C167.163 38.0192 167.543 37.8977 167.779 37.7379C168.016 37.5781 168.134 37.3416 168.134 37.0284V36.9709C168.134 36.3636 167.942 35.8938 167.559 35.5614C167.182 35.229 166.645 35.0629 165.948 35.0629C165.213 35.0629 164.628 35.2259 164.193 35.5518C163.759 35.8714 163.471 36.2741 163.331 36.7599L159.553 36.4531C159.745 35.5582 160.122 34.7848 160.684 34.1328C161.247 33.4744 161.972 32.9695 162.861 32.6179C163.756 32.2599 164.791 32.081 165.967 32.081C166.785 32.081 167.568 32.1768 168.316 32.3686C169.071 32.5604 169.739 32.8576 170.32 33.2603C170.908 33.663 171.372 34.1808 171.711 34.8136C172.049 35.44 172.219 36.1911 172.219 37.0668V47H168.345V44.9577H168.23C167.994 45.418 167.677 45.8239 167.281 46.1754C166.885 46.5206 166.408 46.7923 165.852 46.9904C165.296 47.1822 164.654 47.2781 163.925 47.2781ZM165.095 44.4592C165.696 44.4592 166.226 44.3409 166.686 44.1044C167.147 43.8615 167.508 43.5355 167.77 43.1264C168.032 42.7173 168.163 42.2539 168.163 41.7362V40.1733C168.035 40.2564 167.859 40.3331 167.636 40.4034C167.418 40.4673 167.172 40.5281 166.897 40.5856C166.622 40.6367 166.348 40.6847 166.073 40.7294C165.798 40.7678 165.549 40.8029 165.325 40.8349C164.845 40.9052 164.427 41.017 164.069 41.1705C163.711 41.3239 163.433 41.5316 163.235 41.7937C163.037 42.0494 162.937 42.369 162.937 42.7525C162.937 43.3086 163.139 43.7337 163.541 44.0277C163.951 44.3153 164.468 44.4592 165.095 44.4592ZM179.472 38.4858V47H175.388V32.2727H179.28V34.8711H179.453C179.779 34.0146 180.325 33.337 181.092 32.8384C181.859 32.3335 182.79 32.081 183.883 32.081C184.905 32.081 185.797 32.3047 186.558 32.7521C187.318 33.1996 187.91 33.8388 188.331 34.6697C188.753 35.4943 188.964 36.4787 188.964 37.6229V47H184.88V38.3516C184.886 37.4503 184.656 36.7472 184.189 36.2422C183.723 35.7308 183.08 35.4751 182.262 35.4751C181.712 35.4751 181.227 35.5934 180.805 35.8299C180.389 36.0664 180.063 36.4116 179.827 36.8654C179.597 37.3129 179.478 37.853 179.472 38.4858ZM200.017 32.2727V35.3409H191.148V32.2727H200.017ZM193.161 28.7443H197.246V42.4744C197.246 42.8516 197.303 43.1456 197.419 43.3565C197.534 43.5611 197.693 43.7049 197.898 43.788C198.109 43.8711 198.352 43.9126 198.627 43.9126C198.818 43.9126 199.01 43.8967 199.202 43.8647C199.394 43.8263 199.541 43.7976 199.643 43.7784L200.285 46.8178C200.081 46.8817 199.793 46.9553 199.422 47.0384C199.052 47.1278 198.601 47.1822 198.071 47.2013C197.086 47.2397 196.223 47.1087 195.482 46.8082C194.747 46.5078 194.175 46.0412 193.765 45.4084C193.356 44.7756 193.155 43.9766 193.161 43.0114V28.7443Z" fill="#101A24"/>
<path d="M19.2857 38.0715C24.6113 38.0715 28.9285 33.7542 28.9285 28.4286C28.9285 23.103 24.6113 18.7858 19.2857 18.7858C13.9601 18.7858 9.64282 23.103 9.64282 28.4286C9.64282 33.7542 13.9601 38.0715 19.2857 38.0715Z" stroke="url(#paint0_linear_5_183)" stroke-width="3.57143"/>
<path d="M4.00262 30.7144C4.00087 30.8332 4 30.9522 4 31.0715C4 44.2869 14.7132 55.0001 27.9286 55.0001C41.1439 55.0001 51.8571 44.2869 51.8571 31.0715C51.8571 30.9522 51.8563 30.8332 51.8545 30.7144H4.00262Z" fill="url(#paint1_linear_5_183)"/>
<path d="M39.6429 24.5C42.0098 24.5 43.9286 22.5812 43.9286 20.2143C43.9286 17.8474 42.0098 15.9286 39.6429 15.9286C37.276 15.9286 35.3572 17.8474 35.3572 20.2143C35.3572 22.5812 37.276 24.5 39.6429 24.5Z" stroke="#EAA427" stroke-width="2.14286"/>
<path d="M31.7857 10.2144C34.1526 10.2144 36.0714 8.29559 36.0714 5.92865C36.0714 3.56172 34.1526 1.64294 31.7857 1.64294C29.4188 1.64294 27.5 3.56172 27.5 5.92865C27.5 8.29559 29.4188 10.2144 31.7857 10.2144Z" stroke="#EA7727" stroke-width="2.14286"/>
</g>
<defs>
<filter id="filter0_d_5_183" x="0" y="0" width="206" height="63" filterUnits="userSpaceOnUse" color-interpolation-filters="sRGB">
<feFlood flood-opacity="0" result="BackgroundImageFix"/>
<feColorMatrix in="SourceAlpha" type="matrix" values="0 0 0 0 0 0 0 0 0 0 0 0 0 0 0 0 0 0 127 0" result="hardAlpha"/>
<feOffset dy="4"/>
<feGaussianBlur stdDeviation="2"/>
<feComposite in2="hardAlpha" operator="out"/>
<feColorMatrix type="matrix" values="0 0 0 0 0 0 0 0 0 0 0 0 0 0 0 0 0 0 0.25 0"/>
<feBlend mode="normal" in2="BackgroundImageFix" result="effect1_dropShadow_5_183"/>
<feBlend mode="normal" in="SourceGraphic" in2="effect1_dropShadow_5_183" result="shape"/>
</filter>
<linearGradient id="paint0_linear_5_183" x1="11.4286" y1="20.2143" x2="26.4286" y2="37.7143" gradientUnits="userSpaceOnUse">
<stop stop-color="#EA6D27"/>
<stop offset="1" stop-color="#EAA827"/>
</linearGradient>
<linearGradient id="paint1_linear_5_183" x1="10.4286" y1="30.7144" x2="39" y2="46.4286" gradientUnits="userSpaceOnUse">
<stop stop-color="#FF9400"/>
<stop offset="1" stop-color="#EA6D27"/>
</linearGradient>
<clipPath id="clip0_5_183">
<rect width="198" height="55" fill="white" transform="translate(4)"/>
</clipPath>
</defs>
</svg>
